<?xml version="1.0" standalone="no"?><!DOCTYPE svg PUBLIC "-//W3C//DTD SVG 1.1//EN" "http://www.w3.org/Graphics/SVG/1.1/DTD/svg11.dtd"><svg t="1605935142766" class="icon" viewBox="0 0 1024 1024" version="1.1" xmlns="http://www.w3.org/2000/svg" p-id="2753" xmlns:xlink="http://www.w3.org/1999/xlink" width="200" height="200"><defs><style type="text/css"></style></defs><path d="M614.85662844 786.28194314c-19.01776219 0-34.2855431-15.26778094-34.28554313-34.28554314L580.57108531 374.85542844c0-19.01776219 15.26778094-34.2855431 34.28554313-34.28554313 19.01776219 0 34.2855431 15.26778094 34.28554313 34.28554313l0 377.14097156C649.14217157 771.01416219 633.87439059 786.28194314 614.85662844 786.28194314L614.85662844 786.28194314zM409.14337156 786.28194314c-19.01776219 0-34.2855431-15.26778094-34.28554313-34.28554314L374.85782843 374.85542844c0-19.01776219 15.26778094-34.2855431 34.28554313-34.28554313 19.01776219 0 34.2855431 15.26778094 34.28554313 34.28554313l0 377.14097156C443.42891469 771.01416219 428.16113375 786.28194314 409.14337156 786.28194314L409.14337156 786.28194314zM957.71205687 203.42771469l-171.42771465 0L786.28434314 134.85662844C786.28434314 78.20512626 740.48100031 32 684.23128156 32L340.57228532 32c-56.65150219 0-102.85662844 46.20512625-102.85662846 102.85662844L237.71565686 203.42771469l-171.42771467 0C47.27018096 203.42771469 32.00240002 218.69549469 32.00240002 237.71325689c0 19.01776219 15.26778094 34.2855431 34.28554311 34.28554312l891.42411468 0c19.01776219 0 34.2855431-15.26778094 34.28554313-34.28554315C991.99759998 218.69549469 976.72981904 203.42771469 957.71205687 203.42771469L957.71205687 203.42771469zM306.28674311 134.85662844c0-18.88383375 15.40170844-34.2855431 34.28554315-34.28554312L684.23128156 100.57108528c18.74990625 0 33.48197529 14.999925 33.4819753 34.28554316L717.71325689 203.42771469 306.28674311 203.42771469 306.28674311 134.85662844 306.28674311 134.85662844zM752.1327275 991.9952L272.13512749 991.9952c-56.65150219 0-102.85662844-46.20512625-102.85662843-102.85662844L169.27849906 374.31971655c0-18.88383375 15.40170844-34.2855431 34.28554313-34.28554313 18.88383375 0 34.2855431 15.40170844 34.28554312 34.28554315L237.84958531 889.13857156c0 18.88383375 15.40170844 34.2855431 34.28554313 34.28554313l480.13152751 0c18.88383375 0 34.2855431-15.40170844 34.28554311-34.28554313L786.55219906 375.79292375c0-18.88383375 15.26778094-34.2855431 34.28554312-34.28554313 19.01776219 0 34.2855431 15.40170844 34.28554313 34.28554313L855.12328438 889.13857156C854.9893569 945.79007374 808.78423062 991.9952 752.1327275 991.9952L752.1327275 991.9952zM752.1327275 991.9952" p-id="2754"></path></svg>